<svg xmlns="http://www.w3.org/2000/svg" xml:space="preserve" id="レイヤー_1のコピー" x="0" y="0" style="enable-background:new 0 0 156.3 37.3" version="1.1" viewBox="0 0 156.3 37.3"><style id="style23260" type="text/css">.st0{fill:currentColor}</style><g id="g23358"><path id="path23262" d="M4.6 26 3.5 15.9c-.2-2.2-.5-5.2-.7-7h-.2c0 1.3.1 2.8.1 4.1v13H0V5h4.6l1 8.7c.2 1.3.5 3.9.5 6.5h.1c.1-2.2.1-4.8.3-6.5L7.4 5H12v21H9.3v-9.7c0-2.5 0-4.8.1-7.5h-.1c-.2 1.6-.6 7-.8 8.1l-1 9.1H4.6z" class="st0"/><path id="polygon23264" d="M14.4 26V5h6.9v2.8h-3.8v5.3h3.7v2.8h-3.7v7.4h3.9V26z" class="st0"/><path id="polygon23266" d="M31.2 5v2.8h-2.7V26h-3.1V7.8h-2.8V5z" class="st0"/><path id="path23268" d="M33.1 5h4.7l2.4 21H37l-.6-5.7h-2.2l-.7 5.7h-2.8l2.4-21zm3 12.6-.6-8.7h-.2l-.8 8.7h1.6z" class="st0"/><path id="polygon23270" d="M41.8 26V5h3.1v18.3h4V26z" class="st0"/><path id="path23272" d="M62.6 15.5V26H61l-.1-1.3h-.1c-.6 1.1-1.6 1.7-2.8 1.7-1.5 0-3.6-.8-3.6-3.5V8.1c0-2.7 2.2-3.5 4.1-3.5 1.9 0 4.1.8 4.1 3.5v4.4h-3.1V8.4c0-1.1-.3-1.3-.9-1.3-.6 0-1 .2-1 1.3v14.2c0 1.1.3 1.3 1 1.3.6 0 .9-.2.9-1.3V18h-1.2v-2.5h4.3z" class="st0"/><path id="polygon23274" d="M64.8 26V5h7v2.8H68v5.3h3.7v2.8H68v7.4h3.9V26z" class="st0"/><path id="path23276" d="M75.8 5h4.7l2.4 21h-3.2l-.6-5.7H77l-.7 5.7h-2.8l2.3-21zm3.1 12.6-.7-8.7H78l-.8 8.7h1.7z" class="st0"/><path id="path23278" d="M84.6 26V5h4.1c2.5 0 4 .9 4 3.6v3c0 1.6-.4 2.9-3.1 3.2v.1c1.4.2 2.9.6 3 2.6.2 2.8 0 5.7.5 8.6H90c-.5-2.4-.4-5.6-.4-8 0-1.3-.5-1.8-1.9-1.7V26h-3.1zm3.1-12.3h.6c1.1 0 1.3-.6 1.3-1.4V8.6c0-.8-.5-1-1.2-1h-.7v6.1z" class="st0"/><path id="path23280" d="M102.6 22.6c0 1.1.3 1.3 1 1.3.6 0 .9-.2.9-1.3v-2.2c0-2.9-5-5.8-5-9.3v-3c0-2.7 2.2-3.5 4.1-3.5s4.1.8 4.1 3.5v4.4h-3.1V8.4c0-1.1-.3-1.3-.9-1.3-.7 0-1 .2-1 1.3V11c0 1.5 5 6 5 8.2v3.7c0 2.7-2.2 3.5-4.1 3.5s-4.1-.8-4.1-3.5V18h3.1v4.6z" class="st0"/><path id="path23282" d="M109.6 8.1c0-2.7 2.2-3.5 4.1-3.5s4.1.8 4.1 3.5v14.7c0 2.7-2.2 3.5-4.1 3.5s-4.1-.8-4.1-3.5V8.1zm3.1 14.5c0 1.1.3 1.3 1 1.3.6 0 .9-.2.9-1.3V8.4c0-1.1-.3-1.3-.9-1.3s-1 .2-1 1.3v14.2z" class="st0"/><path id="polygon23284" d="M119.8 26V5h3.1v18.3h4V26z" class="st0"/><path id="rect23286" d="M128.3 5h3.1v21h-3.1z" class="st0"/><path id="path23288" d="M133.4 5h3.8c3.1 0 4.4 1.1 4.4 4.7v12.4c0 2-1.3 3.8-3.7 3.8h-4.4V5h-.1zm3.1 18.5h.7c.8 0 1.2-.2 1.2-1.6V9.1c0-1.4-.4-1.6-1.2-1.6h-.7v16z" class="st0"/><path id="polygon23290" d="M0 .1h1.5v.3H1v2H.5v-2H0z" class="st0"/><path id="path23292" d="M6.4 2.4 7 .1h.6l.5 2.4h-.4l-.1-.7H7l-.1.6h-.5zm.7-.9h.4L7.4.8V.3v.5l-.3.7z" class="st0"/><path id="path23294" d="M14.7 1.6v.1c0 .4-.2.8-.7.8-.7 0-.8-.5-.8-1.1v-.3c.1-.6.1-1.1.8-1.1.4 0 .6.2.6.6v.2h-.4c0-.2 0-.4-.2-.4-.4 0-.3.4-.3.6v.7c0 .2 0 .5.3.5.2 0 .2-.4.2-.5h.5v-.1z" class="st0"/><path id="polygon23296" d="M19.8.1h1.4v.3h-.5v2h-.4v-2h-.5z" class="st0"/><path id="rect23298" d="M26.4.1h.4v2.4h-.4z" class="st0"/><path id="path23300" d="M33.6 1.6v.1c0 .4-.2.8-.7.8-.7 0-.8-.5-.8-1.1v-.3c0-.6.1-1.1.8-1.1.4 0 .6.2.7.6v.2h-.4c0-.2 0-.4-.2-.4-.4 0-.3.4-.3.6v.7c0 .2 0 .5.3.5.2 0 .2-.4.2-.5h.4v-.1z" class="st0"/><path id="path23302" d="m38.6 2.4.6-2.4h.6l.5 2.4h-.5l-.1-.6h-.5l-.1.6h-.5zm.7-.9h.4l-.1-.7V.3v.5l-.3.7z" class="st0"/><path id="polygon23304" d="M45.5 2.4V.1h.4v2h.8v.3z" class="st0"/><path id="polygon23306" d="M57.6 2.4V.1h1.2v.3H58V1h.8v.4H58v.7h.8v.3z" class="st0"/><path id="path23308" d="M65 .8c0-.2 0-.4-.3-.4-.1 0-.2.1-.2.2 0 .2.1.3.3.3.1.1.4.3.5.4.2.2.2.3.2.5 0 .4-.3.7-.7.7-.5 0-.7-.3-.7-.7v-.2h.4v.1c0 .2.1.4.3.4.1 0 .2-.1.2-.2s-.1-.2-.2-.3c-.2-.2-.5-.3-.7-.5 0-.2-.1-.3-.1-.5 0-.4.2-.6.7-.6.7 0 .7.5.7.8H65z" class="st0"/><path id="path23310" d="M70.7 2.4V.1h.9c.4 0 .6.3.6.7 0 .2-.1.4-.2.6-.1.1-.3.1-.5.1h-.3v1l-.5-.1zm.5-1.3h.2c.2 0 .3-.1.3-.4s-.1-.3-.4-.3h-.2l.1.7z" class="st0"/><path id="rect23312" d="M77.4.1h.4v2.4h-.4z" class="st0"/><path id="path23314" d="M83.1 1.1c0-.6.1-1.1.8-1.1.7 0 .8.5.8 1.1v.3c0 .6 0 1.1-.8 1.1-.7 0-.8-.5-.8-1.1v-.3zm.5.5c0 .2 0 .5.3.5s.3-.3.3-.6V1c0-.2 0-.6-.3-.6s-.3.4-.3.6v.6z" class="st0"/><path id="path23316" d="M91 .1h.4v2.4H91l-.3-.8-.3-.9c0 .2 0 .4.1.7v1.1h-.4V.1h.5l.3.9.3.9V.1H91z" class="st0"/><path id="path23318" d="m96.6 2.4.6-2.4h.6l.5 2.4h-.5l-.1-.6h-.5l-.1.6h-.5zm.6-.9h.4l-.1-.7V.3v.5l-.3.7z" class="st0"/><path id="path23320" d="M103.4 1.1c0-.6.1-1.1.8-1.1.4 0 .6.1.7.5v.3h-.4c0-.2 0-.4-.3-.4s-.3.4-.3.6v.7c0 .2 0 .5.3.5s.3-.3.3-.6h-.3v-.4h.7v1.3h-.3v-.3c-.1.2-.3.3-.4.3-.7 0-.8-.5-.8-1.1v-.3z" class="st0"/><path id="polygon23322" d="M110.2 2.4V.1h1.3v.3h-.8V1h.7v.4h-.7v.7h.8v.3z" class="st0"/><path id="path23324" d="m122.2 2.4.6-2.4h.6l.5 2.4h-.5l-.1-.6h-.5l-.1.6h-.5zm.7-.9h.4l-.1-.7V.3v.5l-.3.7z" class="st0"/><path id="path23326" d="M130.4 1.6v.1c0 .4-.2.8-.7.8-.7 0-.7-.5-.7-1.1v-.3c0-.6.1-1.1.8-1.1.4 0 .6.2.6.6v.2h-.4c0-.2 0-.4-.2-.4-.3 0-.3.4-.3.6v.7c0 .2 0 .5.3.5.2 0 .2-.4.2-.5h.4v-.1z" class="st0"/><path id="polygon23328" d="M135.5.1h1.5v.3h-.5v2h-.5v-2h-.5z" class="st0"/><path id="rect23330" d="M142.1.1h.4v2.4h-.4z" class="st0"/><path id="path23332" d="M147.9 1.1c0-.6.1-1.1.8-1.1s.8.5.8 1.1v.3c0 .6 0 1.1-.8 1.1-.7 0-.8-.5-.8-1.1v-.3zm.4.5c0 .2 0 .5.3.5s.3-.3.3-.6V1c0-.2 0-.6-.3-.6s-.3.4-.3.6v.6z" class="st0"/><path id="path23334" d="M155.8.1h.4v2.4h-.5l-.3-.8-.3-.9V2.6h-.4V.1h.5l.3.9.3.9V.1z" class="st0"/><path id="path23336" d="M151.2 18.2v3.2c0 2.1.5 2.2.9 2.2.6 0 1.1-.1 1.1-1.6v-3.8c0-1.2-.5-1.7-1.5-1.7h-.5V14c1.6.1 1.9-.8 1.9-2.1V10c-.1-1.5.2-2.9-.9-2.9-1.2 0-1 1.2-1.1 2v3.2H148V8.9c0-3.2 1.5-4.3 4.2-4.3 3 0 4 1.8 4 4.1v3.4c0 1.3-.4 2.6-2.5 3.1v.1c2.3.8 2.5 1.7 2.5 3v3.6c0 3.4-1.7 4.3-4.1 4.3-3.4 0-4.1-2-4.1-5v-3h3.2z" class="st0" style="fill:#92b000;fill-opacity:1"/><path id="path23338" d="M32.3 32.4c0-.6 0-1.2-.8-1.2-.4 0-.7.2-.7.6 0 .5.3.7.7 1 .4.3 1.2.8 1.6 1.1.4.4.6.9.6 1.4 0 1.3-.9 2-2.1 2-1.5 0-2.1-.9-2.1-2.1v-.5h1.3v.4c0 .7.2 1.2.8 1.2.5 0 .8-.3.8-.8 0-.4-.2-.7-.5-.9-.7-.5-1.5-.9-2-1.6-.2-.3-.3-.7-.3-1 0-1.2.7-1.8 2-1.8 2.1 0 2 1.6 2 2.3h-1.3v-.1z" class="st0"/><path id="path23340" d="M42.4 30.3h1.3v6.9h-1.3l-1-2.5c-.3-.8-.6-1.7-.9-2.7 0 .6.1 1.3.1 2s.1 1.4.1 1.9v1.3h-1.3v-6.9h1.3l1 2.5c.3.8.6 1.6.9 2.7 0-.6-.1-1.3-.1-2s-.1-1.3-.1-1.9v-1.3z" class="st0"/><path id="path23342" d="m49 37.2 1.6-6.9h1.7l1.6 6.9h-1.4l-.3-1.7h-1.5l-.3 1.7H49zm1.9-2.8H52l-.3-2c-.1-.3-.1-.6-.1-1v-.5.5c0 .3-.1.6-.1 1l-.6 2z" class="st0"/><path id="path23344" d="M59.2 37.2v-6.9h1.3v3.1c.2-.5.5-1.2.8-1.7l.8-1.4h1.5l-1.7 3 1.8 3.9h-1.4L61 34.4l-.4.8v2h-1.4z" class="st0"/><path id="polygon23346" d="M68.9 37.2v-6.9h3.6v1h-2.3V33h2.1v1h-2.1v2.1h2.3v1.1z" class="st0"/><path id="polygon23348" d="M85 37.2v-6.9h3.6v1h-2.3V33h2.1v1h-2.1v2.1h2.3v1.1z" class="st0"/><path id="path23350" d="m93.7 37.2 1.6-6.9H97l1.6 6.9h-1.4l-.3-1.7h-1.5l-.3 1.7h-1.4zm1.9-2.8h1.1l-.3-2c-.1-.3-.1-.6-.1-1v-.5.5c0 .3-.1.6-.1 1l-.6 2z" class="st0"/><path id="polygon23352" d="M103.5 30.3h4.2v1h-1.4v5.9H105v-5.9h-1.5z" class="st0"/><path id="polygon23354" d="M113.1 37.2v-6.9h3.6v1h-2.3V33h2.1v1h-2.1v2.1h2.3v1.1z" class="st0"/><path id="path23356" d="M123.6 34.2v3h-1.3v-6.9h2.4c1.1 0 2 .4 2 1.7 0 .7-.2 1.5-1.1 1.7.8.1 1 .6 1 1.2 0 .3 0 2 .3 2.2v.1h-1.4c-.2-.4-.1-1.3-.1-1.7s0-1-.4-1.1c-.3-.1-.7-.1-1.1-.1h-.3v-.1zm0-1h1c.4 0 .8-.3.8-1 0-.8-.3-.9-.8-.9h-1v1.9z" class="st0"/></g></svg>